<mxfile host="app.diagrams.net" modified="2021-07-27T08:00:24.514Z" agent="5.0 (Windows NT 10.0; Win64; x64) AppleWebKit/537.36 (KHTML, like Gecko) Chrome/92.0.4515.107 Safari/537.36 Edg/92.0.902.55" etag="TbqGvjJb7BKGct10I_3N" version="14.9.2" type="github">
  <diagram id="o7Cp_jDymxfxChQTPamz" name="Page-1">
    <mxGraphModel dx="1422" dy="914" grid="1" gridSize="10" guides="1" tooltips="1" connect="1" arrows="1" fold="1" page="1" pageScale="1" pageWidth="827" pageHeight="1169" math="0" shadow="0">
      <root>
        <mxCell id="0" />
        <mxCell id="1" parent="0" />
        <mxCell id="8leRdwKkX7VIbGXyuBZ2-20" style="edgeStyle=orthogonalEdgeStyle;rounded=0;orthogonalLoop=1;jettySize=auto;html=1;exitX=0.5;exitY=1;exitDx=0;exitDy=0;entryX=0.5;entryY=0;entryDx=0;entryDy=0;" edge="1" parent="1" source="8leRdwKkX7VIbGXyuBZ2-1" target="8leRdwKkX7VIbGXyuBZ2-19">
          <mxGeometry relative="1" as="geometry">
            <Array as="points">
              <mxPoint x="320" y="430" />
              <mxPoint x="455" y="430" />
              <mxPoint x="455" y="463" />
            </Array>
          </mxGeometry>
        </mxCell>
        <mxCell id="8leRdwKkX7VIbGXyuBZ2-21" style="edgeStyle=orthogonalEdgeStyle;rounded=0;orthogonalLoop=1;jettySize=auto;html=1;exitX=0.5;exitY=1;exitDx=0;exitDy=0;" edge="1" parent="1" source="8leRdwKkX7VIbGXyuBZ2-1" target="8leRdwKkX7VIbGXyuBZ2-13">
          <mxGeometry relative="1" as="geometry" />
        </mxCell>
        <mxCell id="8leRdwKkX7VIbGXyuBZ2-1" value="predict_set" style="rounded=0;whiteSpace=wrap;html=1;" vertex="1" parent="1">
          <mxGeometry x="260" y="340" width="120" height="60" as="geometry" />
        </mxCell>
        <mxCell id="8leRdwKkX7VIbGXyuBZ2-11" style="edgeStyle=orthogonalEdgeStyle;rounded=0;orthogonalLoop=1;jettySize=auto;html=1;exitX=0.5;exitY=1;exitDx=0;exitDy=0;exitPerimeter=0;" edge="1" parent="1" source="8leRdwKkX7VIbGXyuBZ2-2" target="8leRdwKkX7VIbGXyuBZ2-1">
          <mxGeometry relative="1" as="geometry">
            <mxPoint x="360" y="280" as="targetPoint" />
          </mxGeometry>
        </mxCell>
        <mxCell id="8leRdwKkX7VIbGXyuBZ2-28" value="" style="edgeStyle=orthogonalEdgeStyle;shape=flexArrow;rounded=0;orthogonalLoop=1;jettySize=auto;html=1;" edge="1" parent="1" source="8leRdwKkX7VIbGXyuBZ2-2" target="8leRdwKkX7VIbGXyuBZ2-3">
          <mxGeometry relative="1" as="geometry" />
        </mxCell>
        <mxCell id="8leRdwKkX7VIbGXyuBZ2-2" value="dev.tsv" style="shape=cylinder3;whiteSpace=wrap;html=1;boundedLbl=1;backgroundOutline=1;size=15;" vertex="1" parent="1">
          <mxGeometry x="400" y="220" width="110" height="50" as="geometry" />
        </mxCell>
        <mxCell id="8leRdwKkX7VIbGXyuBZ2-3" value="" style="shape=image;verticalLabelPosition=bottom;labelBackgroundColor=#ffffff;verticalAlign=top;aspect=fixed;imageAspect=0;image=data:image/png,iVBORw0KGgoAAAANSUhEUgAAAXQAAAArCAYAAABozHPFAAAMkklEQVR4Ae1d243jMAy8ilyMf7YO/6eIVJAKUkR+DkgBV8ACKUQHSqI8elCRHeVhhwcsLCsSTc2QY1rO7f759++f2cO/vaxjD1w8ew3K9bMRfp195fJxrBHDP3///jW3223TP7SGPaxj6zy8wn/letu5ijGiXPbjkkSdflTQN34zwwT5hraKQD8ReHe8KJf9uOQ6XwVdBX1TT2cqAv1EQAV9P1iqoKuQb0rIWXxU0PcjQsplPy5V0FXQVdA1Bt4aAyroKujFANTA6BcYXAl/6lG53g/XymU/LoUK/WymYTBD+BnNdL4WRXRNwp+nwQzTuWzvejTjMJrjdfkipcC4Hicz4lqO/dZSX//VHMfBjNn1ruZ8PJqrVoblGGjAJefaxex09nFj46iE/fK4qnO8wl4U4xojOZcSJgLWEZ7CmDSmojnS9baXp1VBJxG/XmlRoxmGyZxTUFaev1LQ7bUGd0OitVzPXtylG8rKNZWTXggULzZBfLJrXs15Ggs3gsZgzeztb14uAijoDnexaHg3Pi1i8kUxknMp5I3EW4RnY6xHc4TrbZCDO4LuwYkW3wiYBP7tZl4m6BIh58kMK58CysItYSIESgUbZ3/tPMmP/fXnIjAL+rVzAbKM8waso3xay/XaeQ3+3Y3PvjZyLheuLcKz0bdozsLrBXzWzmv0MVynffwdQfcVOm2RjPMWQahy7TbGaCa/pRAJdSKmNsl8VRyNu93MvCUymmmiCrrPlouc2HPy31JxT86jtY7+KcWPmSb35DIlW0j2uhYvgfA0mKwdt8U1Hs92myZsdwHu3YVlRcB8ig+5CHhOj7RlN5j06afEYx6Ho43zI/JZiePIJj0F8tZaEh/0ZCvHuMZIzqWAyY36Ked8rkxekzifzo57+nyEJ/CIJ85hnmO3doXrpWM2kKdVQWfgUMxvHOA+eAksGkcJNAuZbxPwFtgYsCiR2J7do+ftnY6CXhREl/x2bzsR8EjgrW+TOTPpnOh+zWFv3J7zlhSuFdtwl4VAcZjxXB4jzNuwAPe+EeQi4Di1MZtyXuWRsZ8xb4pjjttCHrgYgv17HluM8fm6EUZfFCM5lwImNyowfY4ETG+GNYlEnN5LXb2w25u6HVfIYcD3Zm8UwBfnGYzZSp5WBd2KdCJ4GOwuAAF8AIBEe6JqySYXJdss0ijomT2wEQU4g1w5poFhbRf3/n01Ry/QkvXhuZuPL4f9k0o65wb2rP+5SERrwTVaW4MZqXK48stawLSy3sjml41Lub4FDhwX4WZrq+O5qouLFIE34EeK4yxuURSS+MjGgv0WMQk3iJ3GSM6lFP9U8E1mhCp9Fu1ZXxBTMYd3ysFdQWdw+AVTFpwYyL49nSlRSNToOJojBThUTa8SdL5zW9JR8DDhsE1j4Dxfq68OYAyLqh1LFQLt34bHPSEwo2CiCsO/BKVHRVvxCfNwDV/ezkUAxNnyM2+7iDyy2Au81eI4twmcJfGRjY34h3nIaTRm3zGSc1nGxOHI1TbwnWIFmpRhzxhHc8rXc/oBN4oN5GmDoLPI+QSxQFDbVZNuy2VetANwDHtYJN50R8WKCQWdqw9nj4SNKuLZHgtmyzEPDP8CtvAtl+CPXw8LaXT9IAy81qM5lqp6ChIfIOM4CwnfDGlf3H7Dhr5lQ4+MUTDBNgtv6XBAhhsDj9Ejx0HONSQ4v3jnpzOJR5E33j6sxHEtDxJBr8c4i8n3xkjOZRkTm5t+Dxy3erlwo0LKbbnM28Ax9m47xuZwlIPl620xT9sE3QsMV9nRSwYvlpxoM4BOfKzAJy+pIkG3ycePxPRiqff30P1jWvgeurth8A2J/HZfy/T9U/wNmPllFm23TO778WnC2ru+C4r4653cB9s29KQCwcT4uL1frj7gHQQ82QSMucr44mMuArGgY5ITbkUeRd6SIoYr+SSOxTwoxAd9DdVt96QxrjGScyljMo0ul8bj0f5fmWjLJfx/E3hBLXEPOciFV9iOI63YaJ4Kgr7NSjAPjPI6WET5JUofoXRBGCr/LxbbPniWuWPbrVzzePmovMnY1DnoNa8fl6/xt9e6n2HnKwX9GUC6am3dVtEz/Nm7zV4ioLy9XwR7cbn3mG9Znwp6h0qa992zl68dbLeQ+I1jeoiA8vZ+MafY7cHlN+ZAac0q6Cq6q3+fSimgXtWnIvAZYtyDb+WyH5eRoDOwenR/yk5xUBw0BjQGthQDKuj+75BuiTT1VUVGY0BjoBQD4W+K4l+MZpXf2pEXuDW/1d/lCCjXyzH71BnKZR9mUMP/4Ekf86+3ooHxeszfdUXl+l3I97+uctkHU9RwFfQ+mKqVFyGgIvAioF9wGeWyD8gq6H1wVCtvQEBF4A2gP+mSymUfYLct6JeDGYaDuQAWUmD8nn7C71C2/733gLO8gczexRyCfant5qr9Z+ADxBaaOdfkw485/fLgX3P6GcyAXK/iuG73cph/rcNPuLiER9ov+et997+uYl5COp/jP+2X7DI2xtiY/TkZB1c6f7ndOAd4/ny9Wivn0o9exZcxxs5zvCzj5NPm1lDLP9uooHOiHkBw3eJKgeECLQ4wm4QhSyR7LUHuEyMIv/ND7c94r8c/D1jsybkmvmYhIw7mZH6E44rd35M5hdoAx7XEDo4nDUJ/L+bCdn9P5ifE16N2GUGyM5jhAUGP/XX+h5TiyzQecy4f5YvjDzFuxe6T5jYC6IdtVNB5kUiQ68sCI0oGnkdHCpg5+d0nqT08F9pq3z8hPQMf5CtvZ1wb8sFxam8iRXVBP8kmntfa9+ySLYypmq1cMGR/l/jYbpeudzidzM9KQS/5ezmk+ZRzJvXkXPJIxLERC6rOgXvy1d3Y0ZbQ/ri5jEPbcf+CnhCEsKQVRpzc64JH7Se4PYQ/opm3cxGgJP0xp9MBKs90HiZy4mtV3O/ZXWIrEd6qv34LIAgU+l9rV/ylIoTs0XGNoBf99RW13yKan4xS/MvnOZc8DtfYhvEs4N5GiEG0VW5/3lzGoe24e0EvVRIMTUZelNA0qkw69qt9FKe8/Rg+zFT5mIsA8eX2TYP+ZVOR0zaOHd/37OZbJvffv9T9tdjReqLFoP+1tuQvPEWsEnTJLgJNfi2r1nMu2R6usY2vLK9V0BnMTz+mZJvwS36C54HM0BMaGfGRgNMwtC+01X59y+UhfAJVxUYuAsTRjzldaM9ZEhTksZFjGwc1u646jatSvE6tXbPrl00YhvXUbOENtWw3ivlVgl62mxKUP/2mI+LznEv+HNdLfXhebkdrtFN4C6Y8Hm1+3lzGoe24+wrdPlaGF0oIClQqoRsJp048F9qUFGpfxuohfAIxxUYuAsSRF3IrgixwOB15bOSYBZ2+DpLZLcVRD7voM75wRP9r7RIONN5V2NEfcrDbLjVbjCONKdmNfbWrPwwmerDIh0Q9OZf8MfplLcMXIfAzaCdFxCzSMEbK7Y+byzi0Hfcv6DYH8W0+AeMqqvhRNg2W9FwKBpds87cF1H58I3wEH8JS/peLAHE0V+aUyDEvZAt5TM/xs7Qt2E0EYPY2nY+iiG3J7gW+jku2eNyDdmcH1++h+6+FlvGl9Ko9IaEDczvnkj/D9VIfngvtqIigMQuw+7i5jEPb8SsEnaCwwRdVJ0wyAoUBQv14LrXdfLX/DHyQm7ydiwD5EPNKj/6xqKOfrRzLdi/p/28Y+KuHeJ1aW/DXCstcTc/Vbs1W+UZhV5nh4IV3zUvR8D1/vFmTXyV/c95KPTmXPArXa1dyv0K3w2ibKt3vR1tS21aAHzSXcWg7blzQ80XKgZGMDQkTJ1Q8SiId++MZ4UztQ4UZUJkbTfjMw0utZq5Lk0Mfcim1w+AFDckW9i8wF4bifKkdBi9oSLawf4G5hUPbuUR/pLZ0cWk89n/aXMmfcv/3CnoZj6QXiZbayZRFp5JN7F9kMBmMdqR2MmXRqWQT+xcZXDS4XQRqZtFXqV2bL30m2cJ+aW6tH+dL7dp86TPJFvZLcx/vb+cS/ZHakj/SeOz/tLmSP+V+FfQyLr4XiZbaVQN3PpRsYv8dE9WP0Y7Urhq486FkE/vvmHjg43YRqF0EfZXatfnSZ5It7Jfm1vpxvtSuzZc+k2xhvzT38f52LtEfqS35I43H/k+bK/lT7ldBL+OivRtAoF0ENrCYL3dRuewTACrofXBUK29AQEXgDaA/6ZLKZR9gM0Gnji3/cGBseQ3qe1sMKtdtOG0hnpTL/lzu4g9c0H2OAlj/fQcCyvV+eFYuH+cSMVRBfxxPtfBiBDCAX3xpvVxnBJTLxwFFDP8DHXl69zJiyIQAAAAASUVORK5CYII=;" vertex="1" parent="1">
          <mxGeometry x="269" y="60" width="372" height="43" as="geometry" />
        </mxCell>
        <mxCell id="8leRdwKkX7VIbGXyuBZ2-7" value="" style="shape=image;verticalLabelPosition=bottom;labelBackgroundColor=#ffffff;verticalAlign=top;aspect=fixed;imageAspect=0;image=data:image/png,iVBORw0KGgoAAAANSUhEUgAAAN8AAAArCAYAAAD4+l0jAAAIVklEQVR4Ae1c23GrMBBNRRTDj+vg30VQgSugiPxkhgJSQGZciO6spBUrrVbImMfiS2YygBDSOWf36EEcfxljzO/vLxwO+Tmy77UJfxKXVBvN3DRjS3WEa8T79fPzY+D3+Xzu/ntk32vz/SQuqTaauWnGlupIr8GAl/lWGnTOmgQ0IaRzzdw0Y5P0hHL4ucx3mW92xaM5wTVju8y3krlKQsK9sybBHC/t3M6q+zXzrWjMsybBZb7933WA5pf5LvPNLjmvmW8bcwrmG83Q92bMJebYm7ZpTT+uA+iTZgvGZWWtamaoRXUqcC7iVtEuw7vgGYYtl7cKy/LmswI0phsyBlsgDhOYCHFW4XKcGJeVtcr1uUpZBc5F3CraZfgXPMOwkfxi7Su6lzdfCeACcUoCnFW4HCfGZWWtcn2uUlaBcxG3inYZ/gXPMGyl/FV0L2++RICx70zbNKZpWtN1cL7tslPsb+gshrDkTa7HAXE2pmk7M4DQvk7XtaZpOtN1jWm6Iexzxr41TSsssV8MFEuCSMfBdKCh7zuHdRCw9bTctjmtSiz+XJsQq350PBMNQBdRY4Fzmdto+hb0hRxpTNt5PZH/AFsVvEe0z8ULn3lhW8Ow5fiyvgDzFA8YBKz+Phdy8Xmi9n2GT5KLmHeYq7n25s2HHQ4QSNgLgsgbmq/UX4mgfa4zgw3aaELC2mca00aJ6I35dAEI94TEY6OzUI8lgcUEWvlAo8mLWDk2OkDY82Bigh918zwh2GAEu3VINcC6L8RU5gZbk9GMaJbQ9tNgsrbdYN8fjN6EFpOkgS1/Lb8YtixfKTdQbzc4zmNzhoX3IS4WHqvtk+Cm1wLXWfPRwNskXCBOKXlT4Yr9UUJgAHIdktKPsHYUhmQndRyOjMiCmUq4c/dSLi75WtPCCIvGC0FzMwHOFu6+gI1oDqNzByOvbQ/qu4Az3ejAkmjA6pL2c7ygTOLmRnYYlDvTktlvSmKSkASTGK8KLClGhi3Hl+YFnAf96ADljFjGNq06cHCZBjjClWCQ2vvLfsKFCLAkUKk4petUuGJ/hJBtk1yz59BQpA7isHVhNIZZnCxB8f7SY8oFzeeWvFNgRKxoTIbNzXDdAGaDBPGmA27e1LxNMismGrC6JN4Sd4kbmM+1hzNLOoBMvGGGhKUerDQYBoxXBZYUI8M2xxf7wqVmoncZ20LzkcEX8c/OfG52gQ79shP2H1suO61wQn82MLiEHN0aHbFEzz0NLHF6eFubBMIS9wGGGcmOWiQYKMySI0sCkkh2P2GNg5iQI8EKOARsLiFaA0s4wAbtwUwTlsxeGxcnaJPsj+k59BFplegoaDHLze+xo+WuxwQDnF2mhX5TDEQDolltDBi2Il/SV9DCrU5CLgScbs8ccilo7P8KQK/9uYtHoqnQ3rz5bKBxMw2b+O3/zjfYlyPO5Gl/bs/p73UkwaKXCO6Fi10SpYGwyeVGYHgBY1/KCAlXG3ysx5IgSiTfZ5ip4pdDuDHH2YFhCwF0gbdmxD2dxw+Jjy827MsxO2BiotMZCMz7WkyL3MbedLC0hpctfW9fLEXLTvrCDvfeUrwizTJ/6srEimHLxHx6wURyw7blZmpcQWAss/Wp2eDZ5PrV3MybL0MQQa19ZMKlfS8IxjzGafkzX7cuAaCdWS4pt+z1Ntje5bkOt3otX8GrGVuJx39pPjdDxDNBSaTae2skwVbYajlI9dbgJrX9brlmbCVu/5353N6rXXWvhwK/mwRbYkOMS4/vclvab81zmrGV8Os3X3Zpts3ypSRUzb2zJsHZuZ1V98h8SOI6uq/VuHS4dNgyBy7z+e+v2VLkq+3LxLkcsN/hAg7Eb1OC8z1/ENSefW7V1ydxSTXSzE0ztlRHvEa/fUEBXuDNvY5nFE7S5pO4pBw1c9OMLdURr9Fvl/lQkTePZ0yCWsqauWnGJul7mU9SZmH5GZOglqpmbpqxSfrub77vu2mau/kmiCTh/h638P9h9pP/d/qUbyDTHml691PO5dvcm5t5wMfX7c+fedwa01Auyjgg0vTIuaU1dri2WrmPsd0mUcMni3ZA8FoXAl5oZEfzYdLdzb3CfM54sUm/7zRp5fZeU2fd2jxBY/MBhylpdHKQFOHcpJpblYOWmBOxrsdjy3GW8ULtHc2H4CggV8aE+3uYWxAZn4MjJCudRaCMt0ef2PuccbH4HGY7oNAZL4DTxSHASk44t6TC1pcwixD9QE8cyA7HluNewAvVdZovAU15xTMH3NGVuDwJAN/NPB5309weJqw+KSllHCJo5IJzIzd3OKVms92RPDkaW45+CS/UV2k+eYYwhhFSlrg8CcB8bo9CBu0kVroGkARcuOTcwq1dTljsL/O9qjtPNBZUImraOgvAKcx3M49vWEqnS2ZkxzXBO5qOLE47g2OxJ3lyNLacFCW8UF/lzGc+dM9nIFmye9nLfLnkZWXEbHCPJrdG89l4k+UOxavXfLCTgzeb0R4J3wymf27Qlbg8CQDfNONBAGJeEAZdHFjS+wLOTaq5UXk0KMe6Ho4tR7mAF6rrnPk8EZuo0TdOTUk8cdWVuDwJ4iQB3Hxg0cVh0jY+49zi+7tc2dUD30OrwJYTQMALVQ8wH0dYLZwdSUD4nAl5u0eUVHM5AtybfWrmphmbJPu5zCexUFR+xiSolU8zN83YJH0v80nKLCw/YxLUUtXMTTM2Sd/LfJIyC8vPmAS1VDVz04xN0vcyn6TMwvIzJkEtVc3cNGOT9A3mg5OjflG4o/pfs99P4pLqopmbZmypjun1of9MCyMDAPqUn0/iksZEMzfN2FId4RrxXubLqbOwDEVd+LjqxzRz04wtF1TE+w+LWZQTnewCtAAAAABJRU5ErkJggg==;" vertex="1" parent="1">
          <mxGeometry x="58.5" y="130" width="223" height="43" as="geometry" />
        </mxCell>
        <mxCell id="8leRdwKkX7VIbGXyuBZ2-10" style="edgeStyle=orthogonalEdgeStyle;rounded=0;orthogonalLoop=1;jettySize=auto;html=1;exitX=0.5;exitY=1;exitDx=0;exitDy=0;exitPerimeter=0;entryX=0.5;entryY=0;entryDx=0;entryDy=0;" edge="1" parent="1" source="8leRdwKkX7VIbGXyuBZ2-8" target="8leRdwKkX7VIbGXyuBZ2-1">
          <mxGeometry relative="1" as="geometry" />
        </mxCell>
        <mxCell id="8leRdwKkX7VIbGXyuBZ2-29" value="" style="edgeStyle=orthogonalEdgeStyle;shape=flexArrow;rounded=0;orthogonalLoop=1;jettySize=auto;html=1;" edge="1" parent="1" source="8leRdwKkX7VIbGXyuBZ2-8" target="8leRdwKkX7VIbGXyuBZ2-7">
          <mxGeometry relative="1" as="geometry" />
        </mxCell>
        <mxCell id="8leRdwKkX7VIbGXyuBZ2-8" value="data.WithRevenue.ss" style="shape=cylinder3;whiteSpace=wrap;html=1;boundedLbl=1;backgroundOutline=1;size=15;" vertex="1" parent="1">
          <mxGeometry x="100" y="210" width="140" height="60" as="geometry" />
        </mxCell>
        <mxCell id="8leRdwKkX7VIbGXyuBZ2-12" value="" style="shape=image;verticalLabelPosition=bottom;labelBackgroundColor=#ffffff;verticalAlign=top;aspect=fixed;imageAspect=0;image=data:image/png,iVBORw0KGgoAAAANSUhEUgAAAR4AAAAsCAYAAACzDNfEAAAH1UlEQVR4Ae2d342rPBDFtyKK4SV18J4iqCAVUMS+XIkCUsBKKcRXY3tgPB4bkpDdBM6VVhAbHObnM8d/ki/fl8M/k8D1ejXLURgIgE9dCeBT5/N1u90c/lIG//79c/QHLikX5gE+NhfwqXNhPnSE8RjGi8SqCwh8wEeayCPnMB4Yz90zOxgPjOcRs5H3wHhgPDAeQwMySe49hzHXjZl4wngM0UE4deGAD/jca8b6ehgPjAczHkMDOlHueQ1jrhszsYzGM7iuaVwz/bWuG8a7BVnqnKFrXNMNdntj79qmdf24/LCl9rcuh3DqfZHxecM+NDXxS8/5EJ9Hnu2RezY2WZPzivdIjIfMZhxHN/Sta5rODSsaWPPGMJ56Iq9h+E7XPJRYG2npKQ6/lKgP8Xnk2R655x36Qc94uiEmyMYBwXhgPE8ZxlbJsrGuSzHBeJb1bs94aGnU9m6MHT4OnWvlMqwPy7DEUHynNo7Na6RZU1xeJdfdbm7sub3WdR2dv/9Sq/jMQ+ca+fzqdcKujbPIeE3XhZllp5ainp3gXxL4X5XXEysu22PfW/Hnemi93nrJoaKnpM2mdV3U401xpRl7sd+2MjOjnTqf0fUt9XvY2mi7mGdsigNtPXDdvD2RxMw64nveaJtirSYT42EY0nRuLIDYuQSAriODkQnizwmYFxzBbVxbNSgyL17WvbnxMAO/76WeWRkNi9/vWfn7Ojd4YYxuSqzIkPmEe3hpm7Jb25G/eV05scKzT/qpxp/Hu0pP3BeGHgPHWXeTdq1+MwxjK4ZlPjQToO0MubKIg3WMq+0GP+CP0YD8QF7i6MvfK3fWMkyMx5uJSiQphtCoSAwROI1iXd+71o/UNOrNQOQIl7Un2lj70K++Tgun+syKlzQef980U4yb98RH33MLs4REZC9MjGf5aT4hwVvXtmqm7PcK5YcWXF+IV2ihpKesL25Cj4prdq1o/1kGtftLfMIHKDRwda4Vs5653+ecIYPiwbuoo1+Kpxbro3WZ8XDAvEzKOk8A4Wu7gYREI1g0HBKAWCoc2ngEh6mTVIJQuedMo51Yok7Xv5kJlRIrLB3n5Mm1M6/9OU4+hlhDstX0lLc5J6g0/Ymp5P9LiVriQ8YTnp9nwdqAZ3acWzQrzmOWMyZ5z8z3XbXDz2UYz83xlHV2YpoOhn0dPVoHKK2jKSI1SiZDbj4tI2IZG9ncdlxq0bpezI74wf7ymAnHGwUzGH2M0zN7MfP0XtUl990cTZ972sA3jEfOGjz3NzMb2R8ZH5HQfpDhT0RL8VNs8R6aJcl4F/UUeZt61FyT91d980K+i3ziHo3ctuBlIeUJ7a0mdUkcQkeCu+yfTzi3jSfOanjWQhB4w4sSjjvdBzhBCW7rhRP3gBiAnPFQ2eA3VYPh+OXZuxvPwjOHrx/EeLp0s3ne3KRlRhe+r6QTxCdBGLm3/BoD89/6WEssHqkn7UwfJIj4a/Gu0FNRjwbXv9Balc/Yu46WpA0NVr3//tw8wLeun3iJTfNkk1xw/Hzj+Zwp2tZJZLWXCUePji/pcLFk0O/3Zq8X+ax63s+J19JIrWwbPvvOyTjj2XeQNZFYdYvCeYHxhFH8M9bri3xWGM8nxWtppFa2BZ9a+3uog/EYSbIonI2NJ+yL0BL2MwaART4GU5ksnxavfPY158/yWfMen34NjMdIEginboDgAz7PGt8XiwjH8HOn4AAO0MDrNQDjib+vDLG9XmxgDMasga/6b8Efs5bhHDP65ajBp84IfOp8qBbGYzCCcAwoogh8BAzjFHwMKKoIxqOA0EsIx4AiisBHwDBOwceAoopgPAoIvYRwDCiiCHwEDOMUfAwoqgjG8312TXN23wJMSTg/l9P0Oyr+J0TO8q7YgNGeaHoXpzmfb3duTu7yw+H9uMupcY3kcwAuHH3Oh2sOdvR9Hv7zkNMsDg/hwMbDyXF25xXGE0wnNajvs0yucnt7k1ueWKnxEJdZaMfhwv2c8+GaIx1JE5wvqT6IwoGNh0UgAYWyTDg/F3eaIPJ9dKSkkiM9leXtyTv2cJ7x8TEHDt6g5UxnCnj/XDjUnA/XHOhIsx2hA9LFPBjBeEyjyISjIEr5pKM71ew/wTI+bDyXs2tOFzetuCSoA3DhcHM+XHOcozYap3IIMx4jIbRwyqO4cxlgo729yU3zCWYb1vJikFNh79+QOeCcD9cc55jlBYxHd36eEJlwFDTZQgb4sMZzcpdvWpLqpSfTyjlzzd6OmX72FuCKeLK8UDmEGY9hFJlwsMeTSC3j4xlGwyGBmfthMJ4E4t5fKKPRRgTjWWM8tHNDn2Al+xf8aY3+SH3/CVY1Htpyp68dJKwoy/bPhb0k58M1BzomgzX1fToThvEYCVESjk+o5P8akcIMstp/guV8cmHlRr1/LmwrOR+uOdjRz37tvT8Yj6GF1cLxrk5gLQMyGt5J0Wo+O4n33jDAZ5kYjMdgBOEYUEQR+AgYxin4GFBUEYxHAaGXEI4BRRSBj4BhnIKPAUUVwXgUEHoJ4RhQRBH4CBjGKfgYUFQRjEcBoZcQjgFFFIGPgGGcgo8BRRV9Xa9Xh7+UAQsHXFIuzAN8bC7gU+fCfOiIGY9yYn5JcPCvTAB8ymyoBnzqfGA8BT4QTgFMLAYf8KkTqNfCeAp8kFgFMLEYfMCnTqBe+x99UQVsJxbxRwAAAABJRU5ErkJggg==;" vertex="1" parent="1">
          <mxGeometry x="50" y="663" width="286" height="44" as="geometry" />
        </mxCell>
        <mxCell id="8leRdwKkX7VIbGXyuBZ2-16" value="" style="edgeStyle=orthogonalEdgeStyle;rounded=0;orthogonalLoop=1;jettySize=auto;html=1;" edge="1" parent="1" source="8leRdwKkX7VIbGXyuBZ2-13" target="8leRdwKkX7VIbGXyuBZ2-14">
          <mxGeometry relative="1" as="geometry" />
        </mxCell>
        <mxCell id="8leRdwKkX7VIbGXyuBZ2-13" value="predict_set" style="rounded=0;whiteSpace=wrap;html=1;" vertex="1" parent="1">
          <mxGeometry x="133" y="463" width="120" height="60" as="geometry" />
        </mxCell>
        <mxCell id="8leRdwKkX7VIbGXyuBZ2-17" value="" style="edgeStyle=orthogonalEdgeStyle;rounded=0;orthogonalLoop=1;jettySize=auto;html=1;shape=flexArrow;" edge="1" parent="1" source="8leRdwKkX7VIbGXyuBZ2-14" target="8leRdwKkX7VIbGXyuBZ2-12">
          <mxGeometry relative="1" as="geometry" />
        </mxCell>
        <mxCell id="8leRdwKkX7VIbGXyuBZ2-14" value="dev.all.tsv" style="shape=cylinder3;whiteSpace=wrap;html=1;boundedLbl=1;backgroundOutline=1;size=15;" vertex="1" parent="1">
          <mxGeometry x="133" y="563" width="120" height="60" as="geometry" />
        </mxCell>
        <mxCell id="8leRdwKkX7VIbGXyuBZ2-25" value="" style="edgeStyle=orthogonalEdgeStyle;rounded=0;orthogonalLoop=1;jettySize=auto;html=1;" edge="1" parent="1" source="8leRdwKkX7VIbGXyuBZ2-19" target="8leRdwKkX7VIbGXyuBZ2-23">
          <mxGeometry relative="1" as="geometry" />
        </mxCell>
        <mxCell id="8leRdwKkX7VIbGXyuBZ2-19" value="predict_set_stats" style="rounded=0;whiteSpace=wrap;html=1;" vertex="1" parent="1">
          <mxGeometry x="395" y="463" width="120" height="60" as="geometry" />
        </mxCell>
        <mxCell id="8leRdwKkX7VIbGXyuBZ2-27" value="" style="edgeStyle=orthogonalEdgeStyle;rounded=0;orthogonalLoop=1;jettySize=auto;html=1;shape=flexArrow;" edge="1" parent="1" source="8leRdwKkX7VIbGXyuBZ2-23" target="8leRdwKkX7VIbGXyuBZ2-26">
          <mxGeometry relative="1" as="geometry" />
        </mxCell>
        <mxCell id="8leRdwKkX7VIbGXyuBZ2-23" value="dev.all.distribution.stats.ss" style="shape=cylinder3;whiteSpace=wrap;html=1;boundedLbl=1;backgroundOutline=1;size=15;" vertex="1" parent="1">
          <mxGeometry x="395" y="563" width="120" height="60" as="geometry" />
        </mxCell>
        <mxCell id="8leRdwKkX7VIbGXyuBZ2-26" value="" style="shape=image;verticalLabelPosition=bottom;labelBackgroundColor=#ffffff;verticalAlign=top;aspect=fixed;imageAspect=0;image=data:image/png,iVBORw0KGgoAAAANSUhEUgAAALcAAAAnCAYAAABNCNncAAAHLklEQVR4Ae1b243jMAzcilyMf1KH/12EK0gFLiI/C7iAK2CBFMIDRVEa0ZKT2NlNVqsDAlsKJXGGI+qxlw8ion///vGj/csw8Fe4qRHnx+fnJ/Hner22j+Hgr3BTK84mbiNonOS1Bh0x8nutOJu4m7ibuO1s/wvlWjOajV2tOFvmbpm7ZW472/9CudaMZmNXK8515l4m6ruepuXNb09u+LlMA/VdR5379DTNj+MpBd32PUzLy26arC/PxGknwW8rVynueeip63oappmWZaF56ql3AlyIv5P322LPiXseeML0NMyL63uZ/SQa5h8X+Hfi/G1Czvlbn7hdRu9oSDL1QvPM2XWhqe/2izvb95Wu8+AE/6OrXdaXJ+HcOIfkRPSudTfEPdPAy7rPSiFLcV0/0Hy9kstkkLWWqaeun2jiDKf1JhDOJteny7Z+ifeCGVwWlrHiEtzTMHDGXG+fdPxlFSARtmxT2P+J1jZpNreZ2/XdiS9pQIUnN6Gs0E05x6FODsU6IHfXK+Uw5erEp+M4rT8c57XffhyNsWrB87q2v9JVdTDx1le2jL22NzypD5owsv2tYpzGb0Pc3nkVgXNsoNntxZcoXueUBlza8LKP5IsoVOzRJoIVQTMAFl8UCWRZJcZnYN5q8PZAwavYcFyti08Y+wYx3CYrbuUjaS/idtudrSBtcghYC5xGHHnBx++P4RRhgT+bfmvsYYKX7H0MOelxYhFd+Bju4S2JQSps5qIo7r5Ps1sQqJ9xLgO6QGdA8aAOiDjO2X3g2RrspX4tRAiKAbuyhf5jUL836MKBBhPJBA6M35iBihzaNlfoT4ViArniI/keeEzq0ef4bicx+szcFv1GPx0G4aZo78UdtoxYthxAudjfDWxFccsSGTPjFpnuO56NnE11mfH722HmQDFofvKtxRC2BOs+ISgALhCMWbMgbs06gcCEAOg/qY+BxomyCjoGA9ujr/jONlBe4/Xjgo2Or1zqU+vD07WxZwvFcRCn8afot25FTOyL9pY/LJsx7+INY5B5L4qbl3u5GfCZKpCpW4gpXq95oXG2R1EJyJ50X8X99T3cVgRw2icczLJguX+25VsPubWw2xI9NNobDbmu80EPE1DFkH+uxK3BzNyWhBsYj0nKxs8ShxYrB6rAaRC3Tx7fgtP6U/IbJm8S+5J9iLfnG8t7eMsIOvKzsS0R0YgY9PAVD3RyoIzC8nb2sBVAChgndt1Te8eSg4IXjXPQEuyExftsfxXnDiVxZUFQIn619ZPA356oD4opbZeKPCdu13dyh+79cZNO2st5wNcPMGHdEg/37/0gZ4YM1jhJc9sg9VOuNsMh2a2MKde7cGb8KcdetlB2nKw9ijlM4JgQH+btYXHfaJAXw2PLYL4PDdj7PPPiXvunE4ZXqFs3MPdj/zlO78V5v+9rjl7Rdr0t2SFuyb6lLPoeQPeQ+8qg/ySnr8S5Jy73tjksbt374l773sHf3e5VQf9pTl+F87vjf1jc3+3gK/uvNeiW01pxBnErwPaUn901Hn4/D03c/jekTcy/X8w2hh/8g+8af/mc+SH7w1VK1sMNf1mDWnE2cW8IsdagW8i14mzitpGGcq1BB4jutVacTdw20lCuNegAsYnbklFT+et88n/S5z+X62ekC1H4L69vgfcyUteJX+jPZVSfT3T+ItrCw+2sPdcdncRuzNOZvtQx56v4dWKn3L8vOp/U145GJnizXr/nZ6lttFn5QEQtc0d+3BuTpAE5GnTT9c6iD+w40mjEzUJVX0udI56S/TGcFxo5Kai4v850Cn7ydzLpiC50UUEbm3w9Iiq1VRvjg69u4lZ+3JNJitnxWNCTjp9QSH1jsYwqqGLv2KZsfwQnT57xfKaT9wUnE7tly+Iq+oXOl+q3bawPat3ErUzw8zImmfBI0LHb57ybwPPS77K5X+pzQkc8G/a7cXIG5v0FPx8Rt/NF0ziwU6oHE45RF/c0MrbxQc2buJUJt6/TJVQqdwc99PnMl4y4w5Ive+l0i8LbGcDDoijY78MJ/YO4nfjC6idbKvWLM6w716A4fXbP1SN7+bYFH3zDJm5lULOQlp9w0IKunvCaETeKpJTRdGT7PZT3iDvZbqC4UazdicYxnmHUFZkAMPH0CzMBtTp5gs2WD9ymidszx0ShVrh6T9CTQDy18Ji4V3hAzM4tKD+Ok32JNx/hlimzNeJDrOWVx3+0HqmUtrd9aOJ2rMHyBiw+HnRo/PRXI24+UIZthiz/UUQ5PGX7wzhN5g7QeQKp4C8Xd70q34EvpXrEV7QJIyX7fq1t4nZMWOEIPYeDriw/5ZnxkUWlGTQqm/NicusThi/YH8aZiJvH1qweb57coTPUQzZHnzqoR3EXbQKyJm6g4q7Xw0G/a5TXG9WKs2XuDW3VGnQLuVacTdw20lCuNegA0b3WirOJ20YayrUGHSBWLe7/HlobLj9llTgAAAAASUVORK5CYII=;" vertex="1" parent="1">
          <mxGeometry x="363.5" y="663" width="183" height="39" as="geometry" />
        </mxCell>
      </root>
    </mxGraphModel>
  </diagram>
</mxfile>
